<svg xmlns="http://www.w3.org/2000/svg" width="512" height="512"><path fill="#E23D98" stroke="#E23D98" d="M414.5 1q45.1 8.9 69.5 38.5 13 15 21 35l5 18 1 14 1 1v227l-1.5-.5-18-2-13-3h-6l-14.5-3V106.5q-5.2-27.8-24.5-41.5-11.4-9.1-29-12l-95.5-.5z" opacity=".996"/><path fill="#E23D98" stroke="#E23D98" d="M389.5 80h15q11.6 2.9 18.5 10.5 6.5 6.5 9 17v15q-3.6 13.4-13.5 20.5l-12 6-13 1-13-4-9.5-7.5q-9.1-8.9-9-27 2.8-17.2 14.5-25.5zM245.5 106h21l1 1 15 1 20 5 13 5q33.4 15.1 55.5 41.5 19.1 21.9 29 53l5 23 1 30-1 1v9l-1 1-1 11-9 28.5-2.5-1h-6l-1-1-55.5-8.5 12-24 3-14v-23q-7-38-32.5-57.5l-10-7-20-9-13-3h-24q-38 7-57.5 32.5-10.3 12.7-16 30l-3 14v23l3 12.5-24.5-3-19-4h-6l-14.5-3-1-3.5v-22l1-1 1-14 5-20 12-27q13.8-24.2 34.5-41.5 16.3-13.7 37-23l24-8 16-3h8zM51.5 180l1.5.5v81l-1.5-.5-18-2-13-3h-6L0 253v-46.5l1.5-1.5z" opacity=".996"/><path fill="#AF3198" stroke="#AF3198" d="m100.5 0 3.5.5-3.5.5zM406.5 0l5.5.5-5.5.5zM93.5 1l2.5.5-2.5.5zM415.5 1l2.5.5-2.5.5zM420.5 2l2.5.5-2.5.5zM428.5 4l2.5.5-2.5.5zM435.5 6l3.5 1.5-1.5.5zM453.5 14l3.5 2.5-1.5-.5zM458.5 17q15.3 9.2 26.5 22.5l13 19-2-1Q487 40 472.5 28l-13-9zM51.5 18l-1 2zM48.5 20l-2 3zM44.5 23l-3 4zM39.5 27l-10 11zM25.5 42l-2 3zM22.5 46l-2 3zM107.5 53l6.5.5-6.5.5zM398.5 53l7.5.5-7.5.5zM101.5 54l2.5.5-2.5.5zM408.5 54l2.5.5-2.5.5zM16.5 55l-1 2zM419.5 57l10.5 5.5-1.5-.5-9-4zM89.5 58l1.5.5-6.5 3.5 1-2zM499.5 62l2.5 4.5h-1zM80.5 63l-2 3zM431.5 63 447 77.5l2 3-3-2L434.5 66zM76.5 66l-10 11zM502.5 68l2.5 5.5h-1zM65.5 78l-2 3zM391.5 79l11.5.5-11.5.5zM411.5 82l4.5 2.5-1.5-.5q-3.8-.3-3-2ZM449.5 82l5.5 10.5h-1zM380.5 83l-1 2-3 1-7.5 7.5-1.5 2.5.5-1.5 8.5-9.5zM61.5 84l-.5 1.5-2.5 5.5-.5-1.5zM417.5 85l6.5 5.5 3 4-4-3-1.5-2.5zM508.5 85l.5 2.5h-1zM509.5 89l.5 2.5h-1zM510.5 93l.5 4.5h-1zM427.5 96l2.5 4.5h-1zM366.5 97l-.5 1.5-1.5 3.5-.5-1.5zM.5 100l.5 3.5H0zM511.5 100l.5 6.5h-1zM54.5 101l.5 2.5h-1zM457.5 101l.5 2.5h-1zM254.5 105l3.5.5-3.5.5zM239.5 106l5.5.5-5.5.5zM267.5 106l6.5.5-6.5.5zM362.5 106l.5 4.5h-1zM458.5 106l.5 7.5h-1zM53.5 107l.5 6.5h-1zM231.5 107l4.5.5-4.5.5zM276.5 107l4.5.5-4.5.5zM226.5 108l2.5.5-2.5.5zM283.5 108l2.5.5-2.5.5zM221.5 109l3.5.5-3.5.5zM288.5 109l2.5.5-2.5.5zM432.5 109l.5 11.5h-1zM217.5 110l2.5.5-2.5.5zM292.5 110l2.5.5-2.5.5zM210.5 112l2.5.5-2.5.5zM299.5 112l2.5.5-2.5.5zM207.5 113l1.5.5-3.5 1.5v-1zM303.5 113l3.5 1.5-1.5.5zM199.5 116l1.5.5-3.5 1.5v-1zM311.5 116l3.5 1.5-1.5.5zM316.5 118l12.5 6.5-1.5-.5-11-5zM192.5 119l1.5.5-10.5 5.5 1-2zM362.5 119l.5 3.5h-1zM363.5 124l1.5 4.5h-1zM181.5 125l-1 2-11 7 2-3zM330.5 125q18.3 10.2 32.5 24.5l16 19-4-3-4-6-18.5-18.5-21-14zM428.5 131l-.5 1.5-1 3-8.5 8.5-2 1 1-2 8.5-7.5zM366.5 132l4.5 5.5-4-3zM167.5 134l-2 3-6 4-18.5 18.5-3.5 4.5 2.5-3.5 8-10.5zM371.5 139l1 2zM374.5 141l5.5 4.5-1.5-.5zM414.5 145l-1 2-3 1v-1zM383.5 147l4.5 1.5-2.5.5zM389.5 149l3.5.5-3.5.5zM401.5 149l4.5.5-4.5.5zM136.5 165l-2.5 3.5-8.5 13.5.5-1.5zM244.5 168l6.5.5-6.5.5zM260.5 168l8.5.5-8.5.5zM238.5 169l3.5.5-3.5.5zM270.5 169l2.5.5-2.5.5zM234.5 170l2.5.5-2.5.5zM275.5 170l2.5.5-2.5.5zM230.5 171l2.5.5-2.5.5zM279.5 171l4.5 1.5-1.5.5-3-1zM222.5 174l1.5.5-3.5 1.5v-1zM288.5 174l3.5 1.5-1.5.5zM295.5 177l7.5 4.5-1.5-.5q-5.6-.8-6-4ZM212.5 179l-1 2-9 6 2-3zM123.5 185l-.5 1.5-2.5 5.5-.5-1.5zM200.5 187l-11 12zM117.5 197l.5 1.5-1.5 2.5-.5-1.5zM114.5 205l.5 1.5-1.5 2.5-.5-1.5z" opacity=".247"/><path fill="#5B318F" stroke="#5B318F" d="M104.5 0h301l7.5 1.5L309.5 53h-202Q79.7 57.7 66 76.5l-8 13-5 18V180L.5 206 0 104.5l1-1v-7l2-10q4.5-16 12-29Q25.2 39.7 40.5 27q12.4-11.1 29-18l14-5z" opacity=".996"/><path fill="#F3785C" stroke="#F3785C" d="m0 253 14.5 3h6l13 3 18 2 1.5 1.5v142q4.7 27.8 23.5 41.5l13 8 18 5h298q27.8-5.2 41.5-24.5 9.1-11.4 12-29V326l14.5 3h6l13 3 18 2 1.5 1.5v70l-4 23q-10.7 33.8-34.5 54.5-12.3 11.7-29 19l-16 6-23 4h-298l-1-1-14-1-25-8Q44 491 28 472.5q-20.3-22.2-27-58v-8l-1-1z" opacity=".996"/><path fill="#F3785C" stroke="#F3785C" d="m107 270 14.5 3h6l19 4 24.5 3q8.2 28.5 29.5 45 12.7 10.3 30 16l14 3h23q38-7 57.5-32.5l3-5.5 19.5 2 13 3h6l19 4h6l1.5 1.5Q379 349 353.5 370q-18.4 16.1-43 26l-28 8-15 1-1 1h-21l-1-1-15-1-20-5-27-12q-24.9-14.1-42.5-35.5-13.3-15.7-22-36l-9-28z" opacity=".996"/><path fill="#F66875" stroke="#F66875" d="m379.5 170 6.5 9.5-2-1zM304.5 182l2 3zM308.5 185l1 2zM388.5 185l3.5 6.5h-1zM311.5 187l12 13zM188.5 199l-.5 1.5-3.5 4.5 2.5-3.5zM324.5 201l8.5 11.5-2-1zM183.5 206l-1 2zM181.5 209l-.5 1.5-1.5 2.5.5-1.5zM112.5 210l.5 2.5h-1zM110.5 217l.5 2.5h-1zM401.5 217l.5 2.5h-1zM109.5 221l.5 2.5h-1zM402.5 221l.5 2.5h-1zM174.5 222l.5 1.5-1.5 2.5-.5-1.5zM108.5 226l.5 2.5h-1zM403.5 226l.5 2.5h-1zM107.5 231l.5 3.5h-1zM404.5 231l.5 3.5h-1zM170.5 234l.5 2.5h-1zM341.5 234l.5 2.5h-1zM169.5 238l.5 2.5h-1zM106.5 239l.5 4.5h-1zM342.5 239l.5 2.5h-1zM405.5 239l.5 4.5h-1zM168.5 244l.5 5.5h-1zM343.5 244l.5 7.5h-1zM168.5 260l.5 7.5h-1zM343.5 263l.5 4.5h-1zM405.5 266l.5 6.5h-1zM106.5 267l.5 5.5h-1zM169.5 270l.5 2.5h-1zM342.5 270l.5 2.5h-1zM170.5 275l.5 2.5h-1zM107.5 276l.5 4.5h-1zM404.5 276l.5 3.5h-1zM171.5 279l.5 2.5h-1zM340.5 279l.5 2.5h-1zM403.5 282l.5 3.5h-1zM108.5 283l.5 2.5h-1zM173.5 286l1.5 3.5h-1zM109.5 288l.5 2.5h-1zM110.5 292l.5 2.5h-1zM333.5 297l-.5 1.5-1.5 2.5.5-1.5zM112.5 299l1.5 5.5h-1zM179.5 299l2.5 3.5-2-1zM399.5 299l.5 2.5h-1zM182.5 304l1 2zM329.5 304l-1.5 2.5q-5.7 10.8-15.5 17.5l11.5-12.5zM114.5 306l1.5 3.5h-1zM184.5 307l2 3zM116.5 311l1.5 3.5h-1zM187.5 311l13 14zM119.5 318l5.5 10.5-2-1-4-8zM310.5 324l-3 4zM202.5 325l2 3zM206.5 328l1 2zM305.5 328l-1 2-5 3 1-2zM209.5 330l3.5 2.5-1.5-.5zM386.5 330l-.5 1.5-1.5 2.5.5-1.5zM126.5 332l1 2zM128.5 335l7.5 10.5-3-2zM383.5 335l-1 2zM290.5 336l1.5.5-9.5 3.5v-1zM222.5 337l3.5 1.5-1.5.5zM381.5 338l-.5 1.5-5.5 7.5 2.5-3.5zM230.5 340l2.5.5-2.5.5zM234.5 341l2.5.5-2.5.5zM275.5 341l2.5.5-2.5.5zM238.5 342l2.5.5-2.5.5zM270.5 342l2.5.5-2.5.5zM244.5 343l4.5.5-4.5.5zM260.5 343l7.5.5-7.5.5zM136.5 347l3 4zM374.5 348l-3 4zM140.5 352l19 20zM370.5 353l-17 18-9 7 2-3q13.9-9.1 24-22ZM161.5 372l20.5 14.5-1.5-.5-16-10zM342.5 378l-1 2zM339.5 380l-2 3-2 1 1-2zM333.5 384l-1 2-4 2 1-2zM183.5 387l10.5 5.5-1.5.5-8-4zM324.5 389l-1 2-3 1v-1zM315.5 393l1.5.5-3.5 1.5v-1zM197.5 394l3.5 1.5-1.5.5zM202.5 396l3.5 1.5-1.5.5zM308.5 396l1.5.5-4.5 1.5v-1zM53.5 398l.5 6.5h-1zM458.5 398l.5 7.5h-1zM210.5 399l2.5.5-2.5.5zM217.5 401l2.5.5-2.5.5zM292.5 401l2.5.5-2.5.5zM221.5 402l2.5.5-2.5.5zM226.5 403l2.5.5-2.5.5zM283.5 403l2.5.5-2.5.5zM231.5 404l3.5.5-3.5.5zM276.5 404l4.5.5-4.5.5zM238.5 405l6.5.5-6.5.5zM267.5 405l5.5.5-5.5.5zM.5 406l.5 5.5H0zM254.5 406l2.5.5-2.5.5zM511.5 406l.5 5.5h-1zM54.5 408l.5 2.5h-1zM457.5 408l.5 2.5h-1zM55.5 412l.5 2.5h-1zM456.5 412l.5 2.5h-1zM1.5 415l.5 2.5H1zM510.5 415l.5 2.5h-1zM454.5 419l.5 1.5-5.5 9.5.5-1.5zM2.5 420l.5 2.5H2zM509.5 420l.5 2.5h-1zM58.5 421l3.5 6.5-2-1zM4.5 428l.5 2.5H4zM63.5 431l2 3zM448.5 431l-1.5 2.5-11.5 12.5 10.5-11.5zM66.5 435l10 11zM8.5 440l1.5 3.5H9zM10.5 445l2.5 4.5-2-1zM78.5 446l2 3zM433.5 446l-2 3-12 6v-1q8.5-2.5 14-8ZM84.5 450l6.5 3.5-1.5.5q-4.6-1.2-5-4ZM14.5 453q9.8 17.8 24.5 30.5l-12-11-11-15zM497.5 453l-.5 1.5-3.5 5.5 1.5-2.5zM97.5 456l2.5.5-2.5.5zM412.5 456l2.5.5-2.5.5zM101.5 457l2.5.5-2.5.5zM408.5 457l2.5.5-2.5.5zM107.5 458l6.5.5-6.5.5zM398.5 458l7.5.5-7.5.5zM492.5 461l-1 2zM490.5 464l-1.5 2.5-5.5 6.5 4.5-5.5zM482.5 474l-8 9zM472.5 483l-5 6zM40.5 484 54 494.5l-1.5-.5q-8.5-3.7-12-10ZM465.5 489l-1 2zM462.5 491l-1 2zM459.5 493l-1 2zM55.5 495l3.5 2.5-1.5-.5zM456.5 495l-1 2zM60.5 498l2.5 1.5-1.5.5zM68.5 502l8.5 3.5-1.5.5-7-3zM442.5 502l1.5.5-3.5 1.5v-1zM431.5 506l1.5.5-3.5 1.5v-1zM81.5 507l2.5.5-2.5.5zM85.5 508l2.5.5-2.5.5zM425.5 508l2.5.5-2.5.5zM89.5 509l2.5.5-2.5.5zM419.5 509l3.5.5-3.5.5zM93.5 510l4.5.5-4.5.5zM414.5 510l3.5.5-3.5.5zM100.5 511l6.5.5-6.5.5zM406.5 511l6.5.5-6.5.5z" opacity=".22"/></svg>